<svg width="107" height="48" viewBox="0 0 107 48" fill="none" xmlns="http://www.w3.org/2000/svg">
<path d="M29.9837 40.528H33.7437V42H28.1597V30.88H29.9837V40.528ZM34.6611 37.552C34.6611 36.6667 34.8424 35.8827 35.2051 35.2C35.5784 34.5173 36.0798 33.9893 36.7091 33.616C37.3491 33.232 38.0531 33.04 38.8211 33.04C39.5144 33.04 40.1171 33.1787 40.6291 33.456C41.1518 33.7227 41.5678 34.0587 41.8771 34.464V33.184H43.7171V42H41.8771V40.688C41.5678 41.104 41.1464 41.4507 40.6131 41.728C40.0798 42.0053 39.4718 42.144 38.7891 42.144C38.0318 42.144 37.3384 41.952 36.7091 41.568C36.0798 41.1733 35.5784 40.6293 35.2051 39.936C34.8424 39.232 34.6611 38.4373 34.6611 37.552ZM41.8771 37.584C41.8771 36.976 41.7491 36.448 41.4931 36C41.2478 35.552 40.9224 35.2107 40.5171 34.976C40.1118 34.7413 39.6744 34.624 39.2051 34.624C38.7358 34.624 38.2984 34.7413 37.8931 34.976C37.4878 35.2 37.1571 35.536 36.9011 35.984C36.6558 36.4213 36.5331 36.944 36.5331 37.552C36.5331 38.16 36.6558 38.6933 36.9011 39.152C37.1571 39.6107 37.4878 39.9627 37.8931 40.208C38.3091 40.4427 38.7464 40.56 39.2051 40.56C39.6744 40.56 40.1118 40.4427 40.5171 40.208C40.9224 39.9733 41.2478 39.632 41.4931 39.184C41.7491 38.7253 41.8771 38.192 41.8771 37.584ZM56.7849 33.04C57.4782 33.04 58.0969 33.184 58.6409 33.472C59.1955 33.76 59.6275 34.1867 59.9369 34.752C60.2569 35.3173 60.4169 36 60.4169 36.8V42H58.6089V37.072C58.6089 36.2827 58.4115 35.68 58.0169 35.264C57.6222 34.8373 57.0835 34.624 56.4009 34.624C55.7182 34.624 55.1742 34.8373 54.7689 35.264C54.3742 35.68 54.1769 36.2827 54.1769 37.072V42H52.3689V37.072C52.3689 36.2827 52.1715 35.68 51.7769 35.264C51.3822 34.8373 50.8435 34.624 50.1609 34.624C49.4782 34.624 48.9342 34.8373 48.5289 35.264C48.1342 35.68 47.9369 36.2827 47.9369 37.072V42H46.1129V33.184H47.9369V34.192C48.2355 33.8293 48.6142 33.5467 49.0729 33.344C49.5315 33.1413 50.0222 33.04 50.5449 33.04C51.2489 33.04 51.8782 33.1893 52.4329 33.488C52.9875 33.7867 53.4142 34.2187 53.7129 34.784C53.9795 34.2507 54.3955 33.8293 54.9609 33.52C55.5262 33.2 56.1342 33.04 56.7849 33.04ZM62.1299 37.552C62.1299 36.6667 62.3112 35.8827 62.6739 35.2C63.0472 34.5173 63.5485 33.9893 64.1779 33.616C64.8179 33.232 65.5272 33.04 66.3059 33.04C66.8819 33.04 67.4472 33.168 68.0019 33.424C68.5672 33.6693 69.0152 34 69.3459 34.416V30.16H71.1859V42H69.3459V40.672C69.0472 41.0987 68.6312 41.4507 68.0979 41.728C67.5752 42.0053 66.9725 42.144 66.2899 42.144C65.5219 42.144 64.8179 41.952 64.1779 41.568C63.5485 41.1733 63.0472 40.6293 62.6739 39.936C62.3112 39.232 62.1299 38.4373 62.1299 37.552ZM69.3459 37.584C69.3459 36.976 69.2179 36.448 68.9619 36C68.7165 35.552 68.3912 35.2107 67.9859 34.976C67.5805 34.7413 67.1432 34.624 66.6739 34.624C66.2045 34.624 65.7672 34.7413 65.3619 34.976C64.9565 35.2 64.6259 35.536 64.3699 35.984C64.1245 36.4213 64.0019 36.944 64.0019 37.552C64.0019 38.16 64.1245 38.6933 64.3699 39.152C64.6259 39.6107 64.9565 39.9627 65.3619 40.208C65.7779 40.4427 66.2152 40.56 66.6739 40.56C67.1432 40.56 67.5805 40.4427 67.9859 40.208C68.3912 39.9733 68.7165 39.632 68.9619 39.184C69.2179 38.7253 69.3459 38.192 69.3459 37.584ZM74.5096 32.016C74.1789 32.016 73.9016 31.904 73.6776 31.68C73.4536 31.456 73.3416 31.1787 73.3416 30.848C73.3416 30.5173 73.4536 30.24 73.6776 30.016C73.9016 29.792 74.1789 29.68 74.5096 29.68C74.8296 29.68 75.1016 29.792 75.3256 30.016C75.5496 30.24 75.6616 30.5173 75.6616 30.848C75.6616 31.1787 75.5496 31.456 75.3256 31.68C75.1016 31.904 74.8296 32.016 74.5096 32.016ZM75.4056 33.184V42H73.5816V33.184H75.4056ZM81.2084 40.368L83.7044 33.184H85.6404L82.2804 42H80.1044L76.7604 33.184H78.7124L81.2084 40.368Z" fill="black"/>
<path d="M1.1022 45.1304C-0.164214 47.8309 10.6013 43.4686 18.8336 45.1304C22.1486 45.7996 25.7995 47 15.245 47C3.93062 47 26.4328 13.1401 16.5634 25.1884L1.73556 44.2995L1.1022 45.1304Z" stroke="#6C63FF" stroke-width="2"/>
</svg>
